<svg xmlns="http://www.w3.org/2000/svg" xmlns:xlink="http://www.w3.org/1999/xlink" width="150" zoomAndPan="magnify" viewBox="0 0 112.5 37.5" height="50" preserveAspectRatio="xMidYMid meet" version="1.0"><defs><clipPath id="id1"><path d="M 0.492188 0 L 111.511719 0 L 111.511719 37.007812 L 0.492188 37.007812 Z M 0.492188 0 " clip-rule="nonzero"/></clipPath><clipPath id="id2"><path d="M 0.492188 2 L 111.511719 2 L 111.511719 35.566406 L 0.492188 35.566406 Z M 0.492188 2 " clip-rule="nonzero"/></clipPath></defs><g clip-path="url(#id1)"><path fill="rgb(100%, 100%, 100%)" d="M 0.492188 0 L 112.007812 0 L 112.007812 43.863281 L 0.492188 43.863281 Z M 0.492188 0 " fill-opacity="1" fill-rule="nonzero"/><path fill="rgb(100%, 100%, 100%)" d="M 0.492188 0 L 112.007812 0 L 112.007812 37.171875 L 0.492188 37.171875 Z M 0.492188 0 " fill-opacity="1" fill-rule="nonzero"/><path fill="rgb(100%, 100%, 100%)" d="M 0.492188 0 L 112.007812 0 L 112.007812 37.171875 L 0.492188 37.171875 Z M 0.492188 0 " fill-opacity="1" fill-rule="nonzero"/><path fill="rgb(100%, 100%, 100%)" d="M 0.492188 0 L 112.007812 0 L 112.007812 37.171875 L 0.492188 37.171875 Z M 0.492188 0 " fill-opacity="1" fill-rule="nonzero"/></g><g clip-path="url(#id2)"><path fill="rgb(34.118652%, 94.898987%, 94.898987%)" d="M 3.066406 28.976562 C 1.84375 28.339844 1.019531 27.5625 0.671875 26.28125 C 0.503906 25.664062 0.621094 25.261719 1 24.859375 C 1.398438 24.433594 1.800781 24.011719 2.242188 23.628906 C 7.933594 18.660156 14.171875 14.464844 20.816406 10.859375 C 25.203125 8.480469 29.628906 6.164062 34.359375 4.496094 C 42.765625 1.523438 51.222656 1.449219 59.722656 4.054688 C 62.335938 4.851562 64.710938 6.128906 66.972656 7.664062 C 67.597656 8.09375 68.382812 8.40625 69.132812 8.519531 C 77.703125 9.867188 85.714844 12.675781 93.011719 17.378906 C 94.964844 18.636719 96.847656 20 98.980469 21.160156 C 98.628906 20.640625 98.273438 20.121094 97.914062 19.605469 C 97.425781 18.910156 96.90625 18.242188 96.460938 17.523438 C 95.390625 15.820312 96.121094 13.628906 98.136719 12.683594 C 103.023438 18.261719 107.394531 24.289062 112.035156 30.285156 C 111.9375 31.835938 110.96875 33.167969 109.984375 34.464844 C 109.488281 35.125 108.726562 35.414062 107.847656 35.21875 C 107.332031 35.105469 106.804688 35.011719 106.285156 34.90625 C 99.832031 33.609375 93.394531 33.671875 86.972656 35.132812 C 86.421875 35.257812 85.851562 35.320312 85.105469 35.4375 C 85.152344 34.851562 85.089844 34.425781 85.226562 34.074219 C 85.601562 33.105469 86.003906 32.136719 86.507812 31.230469 C 86.898438 30.53125 87.535156 30.105469 88.402344 29.953125 C 90.652344 29.554688 92.878906 29.074219 95.117188 28.621094 C 95.511719 28.539062 95.90625 28.445312 96.488281 28.308594 C 89.496094 22.648438 81.652344 19.207031 73.113281 16.886719 C 73.179688 18.128906 73.230469 19.214844 73.296875 20.300781 C 73.441406 22.691406 72.605469 24.714844 70.722656 26.15625 C 69.046875 27.4375 67.269531 28.636719 65.40625 29.617188 C 61.824219 31.492188 58.101562 33.0625 54.113281 33.90625 C 52.28125 34.292969 50.441406 34.414062 48.5625 34.242188 C 45.550781 33.96875 43.503906 32.421875 42.433594 29.660156 C 41.195312 26.445312 40.550781 23.183594 41.773438 19.777344 C 42.921875 16.566406 45.183594 14.34375 48.050781 12.679688 C 49.558594 11.804688 51.160156 11.074219 52.71875 10.285156 C 53.128906 10.074219 53.546875 9.875 54.261719 9.519531 C 53.65625 9.316406 53.359375 9.160156 53.042969 9.117188 C 46.753906 8.359375 40.613281 9.011719 34.703125 11.296875 C 27.550781 14.0625 20.714844 17.457031 14.160156 21.433594 C 10.53125 23.636719 7.015625 26 3.699219 28.644531 C 3.535156 28.769531 3.328125 28.835938 3.066406 28.976562 Z M 70.5625 18.101562 C 69.933594 16.539062 68.886719 15.984375 67.386719 16.023438 C 65.480469 16.074219 63.566406 15.9375 61.664062 16.007812 C 56.183594 16.210938 51.539062 18.542969 47.328125 21.824219 C 45.765625 23.042969 44.679688 24.660156 44.109375 26.804688 C 45.039062 27.105469 45.859375 27.507812 46.71875 27.617188 C 47.96875 27.773438 49.285156 27.910156 50.511719 27.699219 C 52.75 27.316406 54.984375 26.800781 57.144531 26.113281 C 61.0625 24.882812 64.734375 23.097656 68.074219 20.707031 C 69.058594 20.003906 70.003906 19.234375 70.5625 18.101562 Z M 70.5625 18.101562 " fill-opacity="1" fill-rule="nonzero"/></g></svg>