<svg xmlns="http://www.w3.org/2000/svg" xmlns:xlink="http://www.w3.org/1999/xlink" width="75" zoomAndPan="magnify" viewBox="0 0 56.25 37.499999" height="50" preserveAspectRatio="xMidYMid meet" version="1.0"><defs><clipPath id="id1"><path d="M 2.75 0 L 53 0 L 53 37 L 2.75 37 Z M 2.75 0 " clip-rule="nonzero"/></clipPath></defs><g clip-path="url(#id1)"><path fill="rgb(100%, 100%, 100%)" d="M 16.507812 24.484375 C 16.914062 24.027344 17.230469 23.625 17.59375 23.269531 C 18.808594 22.082031 19.984375 20.847656 21.285156 19.757812 C 22.6875 18.585938 24.703125 18.902344 25.992188 20.261719 C 26.316406 20.597656 26.882812 20.703125 27.394531 20.941406 C 27.617188 21.484375 27.09375 21.722656 26.769531 22.027344 C 23.839844 24.796875 21.5625 28.0625 19.585938 31.527344 C 18.832031 32.851562 18.324219 34.320312 17.75 35.742188 C 17.300781 36.859375 17.242188 37.019531 16.015625 36.921875 C 13.832031 36.746094 11.925781 36.007812 10.546875 34.136719 C 8.148438 30.894531 5.558594 27.78125 3.761719 24.136719 C 3.46875 23.542969 3.253906 22.914062 2.851562 21.941406 C 4.648438 22.261719 6.125 22.25 7.070312 23.667969 C 7.652344 24.535156 8.246094 25.394531 9.046875 26.578125 C 9.25 25.332031 9.378906 24.46875 9.53125 23.617188 C 10.707031 17.1875 13.3125 11.386719 18.195312 6.964844 C 22.640625 2.941406 27.863281 0.160156 34.121094 0.0820312 C 39.378906 0.0195312 43.894531 2.066406 47.839844 5.359375 C 49.417969 6.679688 50.753906 8.289062 52.15625 9.808594 C 52.519531 10.203125 52.71875 10.742188 52.992188 11.214844 C 52.886719 11.316406 52.78125 11.417969 52.675781 11.519531 C 52.027344 11.121094 51.359375 10.757812 50.75 10.308594 C 50.367188 10.03125 50.074219 9.632812 49.753906 9.273438 C 45.667969 4.679688 40.503906 3.453125 34.652344 4.703125 C 30.183594 5.660156 26.492188 8.050781 23.390625 11.328125 C 20.109375 14.785156 17.886719 18.855469 16.554688 23.414062 C 16.492188 23.617188 16.441406 23.824219 16.410156 24.03125 C 16.402344 24.125 16.449219 24.226562 16.507812 24.484375 Z M 16.507812 24.484375 " fill-opacity="1" fill-rule="nonzero"/></g></svg>