<svg xmlns="http://www.w3.org/2000/svg" xmlns:xlink="http://www.w3.org/1999/xlink" width="100" zoomAndPan="magnify" viewBox="0 0 75 37.5" height="50" preserveAspectRatio="xMidYMid meet" version="1.0"><defs><clipPath id="id1"><path d="M 0.492188 0 L 74 0 L 74 37 L 0.492188 37 Z M 0.492188 0 " clip-rule="nonzero"/></clipPath></defs><g clip-path="url(#id1)"><path fill="rgb(94.898987%, 63.919067%, 25.489807%)" d="M 61.332031 28.226562 C 58.15625 29.636719 55.25 30.949219 52.320312 32.222656 C 51.3125 32.660156 50.277344 33.066406 49.21875 33.351562 C 45 34.5 40.722656 35.359375 36.34375 35.585938 C 26.824219 36.074219 18.273438 33.464844 11.269531 26.863281 C 4.828125 20.792969 1.542969 13.015625 0.410156 4.277344 C 0.195312 2.597656 0.585938 1.296875 1.519531 0.0976562 C 1.871094 1.21875 2.230469 2.167969 2.464844 3.144531 C 3.472656 7.332031 5.105469 11.226562 7.558594 14.789062 C 11.808594 20.960938 17.640625 24.820312 24.730469 26.84375 C 26.378906 27.3125 28.105469 27.507812 29.78125 27.894531 C 38.613281 29.925781 46.789062 27.453125 54.824219 24.152344 C 57.15625 23.195312 59.394531 22.019531 61.671875 20.925781 C 62.09375 20.722656 62.480469 20.453125 62.820312 19.847656 C 59.304688 20.058594 55.800781 20.269531 52.324219 20.476562 C 51.351562 19 51.363281 17.554688 51.484375 16.058594 C 51.5625 15.183594 51.90625 14.71875 52.789062 14.570312 C 54.484375 14.289062 56.167969 13.90625 57.859375 13.636719 C 62.589844 12.882812 67.324219 12.160156 72.054688 11.433594 C 72.351562 11.386719 72.660156 11.402344 73 11.386719 C 73.78125 12.503906 74.203125 13.652344 73.820312 15.027344 C 73.710938 15.429688 73.699219 15.894531 73.765625 16.3125 C 74.035156 18.035156 73.46875 19.480469 72.335938 20.71875 C 70.585938 22.625 68.785156 24.484375 67.050781 26.40625 C 66.148438 27.40625 65.285156 28.464844 64.523438 29.574219 C 63.660156 30.824219 63.304688 32.234375 63.421875 33.796875 C 63.511719 34.953125 63.472656 36.148438 62.394531 36.886719 C 61.546875 36.777344 61.433594 36.1875 61.398438 35.640625 C 61.28125 33.921875 61.195312 32.199219 61.152344 30.472656 C 61.125 29.800781 61.25 29.132812 61.332031 28.226562 Z M 61.332031 28.226562 " fill-opacity="1" fill-rule="nonzero"/></g></svg>