<svg xmlns="http://www.w3.org/2000/svg" xmlns:xlink="http://www.w3.org/1999/xlink" width="100" zoomAndPan="magnify" viewBox="0 0 75 37.5" height="50" preserveAspectRatio="xMidYMid meet" version="1.0"><defs><clipPath id="id1"><path d="M 0.492188 0.925781 L 74.503906 0.925781 L 74.503906 35.710938 L 0.492188 35.710938 Z M 0.492188 0.925781 " clip-rule="nonzero"/></clipPath></defs><g clip-path="url(#id1)"><path fill="rgb(94.898987%, 50.588989%, 46.669006%)" d="M 57.148438 24.742188 C 62.472656 17.433594 67.34375 9.871094 70.109375 0.972656 C 71.34375 0.941406 72.585938 1.066406 73.710938 1.929688 C 74.253906 2.347656 74.496094 2.796875 74.332031 3.425781 C 74.027344 4.609375 73.820312 5.855469 73.320312 6.953125 C 71.9375 9.949219 70.550781 12.957031 68.933594 15.824219 C 67.019531 19.207031 64.925781 22.484375 62.785156 25.722656 C 61.914062 27.039062 60.75 28.164062 59.664062 29.332031 C 58.613281 30.464844 57.347656 30.75 55.917969 30.082031 C 55.53125 29.902344 55.148438 29.734375 54.757812 29.566406 C 52.828125 28.726562 51.777344 27.277344 51.644531 25.136719 C 51.496094 22.683594 51.316406 20.234375 51.113281 17.785156 C 50.914062 15.441406 50.476562 13.152344 49.171875 10.875 C 48.488281 11.402344 47.792969 11.796875 47.289062 12.363281 C 46.015625 13.789062 44.757812 15.238281 43.628906 16.777344 C 41.898438 19.136719 40.304688 21.597656 38.601562 23.976562 C 37.859375 25.011719 37.050781 26.011719 36.167969 26.925781 C 34.457031 28.699219 33.332031 28.828125 31.023438 27.917969 C 28.625 26.960938 26.722656 25.449219 25.355469 23.238281 C 25.023438 22.703125 24.636719 22.195312 24.160156 21.507812 C 20.140625 24.214844 17.097656 27.984375 12.824219 30.738281 C 14.425781 30.984375 15.679688 31.109375 16.90625 31.378906 C 18.757812 31.789062 19.628906 33.746094 18.816406 35.671875 C 14.527344 35.484375 10.203125 35.289062 5.882812 35.097656 C 4.828125 35.054688 3.769531 34.933594 2.71875 34.96875 C 1.964844 34.992188 1.445312 34.738281 1.253906 34.042969 C 0.945312 32.917969 0.605469 31.777344 0.527344 30.625 C 0.480469 30.015625 0.835938 29.289062 1.210938 28.75 C 2.375 27.097656 3.613281 25.5 4.855469 23.902344 C 6.402344 21.914062 7.671875 19.777344 8.515625 17.382812 C 8.714844 16.820312 9.070312 16.308594 9.460938 15.5625 C 9.804688 16.105469 10.164062 16.414062 10.144531 16.695312 C 10.050781 18.109375 11.625 19.0625 11.066406 20.621094 C 10.507812 22.171875 10.117188 23.78125 9.65625 25.363281 C 9.589844 25.605469 9.511719 25.84375 9.546875 26.183594 C 11.285156 25.164062 12.839844 23.945312 14.351562 22.65625 C 15.882812 21.34375 17.398438 20.007812 18.964844 18.742188 C 19.863281 18.019531 20.941406 17.636719 22.089844 17.960938 C 23.152344 18.265625 24.195312 18.65625 25.191406 19.132812 C 26.855469 19.925781 28.125 21.210938 29.183594 22.710938 C 29.574219 23.273438 29.980469 23.828125 30.503906 24.570312 C 30.992188 24.078125 31.480469 23.695312 31.839844 23.214844 C 33.238281 21.339844 34.589844 19.429688 35.972656 17.539062 C 37.542969 15.394531 39.101562 13.238281 40.734375 11.140625 C 41.414062 10.269531 42.261719 9.515625 43.074219 8.757812 C 44.6875 7.253906 46.511719 7.140625 48.535156 7.84375 C 53.691406 9.644531 55.96875 13.527344 56.378906 18.777344 C 56.503906 20.375 56.519531 21.980469 56.601562 23.578125 C 56.617188 23.9375 56.691406 24.292969 56.738281 24.648438 C 56.875 24.675781 57.011719 24.710938 57.148438 24.742188 Z M 57.148438 24.742188 " fill-opacity="1" fill-rule="nonzero"/></g></svg>