<svg xmlns="http://www.w3.org/2000/svg" xmlns:xlink="http://www.w3.org/1999/xlink" width="100" zoomAndPan="magnify" viewBox="0 0 75 37.5" height="50" preserveAspectRatio="xMidYMid meet" version="1.0"><defs><clipPath id="id1"><path d="M 0.492188 1.296875 L 74.503906 1.296875 L 74.503906 36.082031 L 0.492188 36.082031 Z M 0.492188 1.296875 " clip-rule="nonzero"/></clipPath></defs><g clip-path="url(#id1)"><path fill="rgb(94.898987%, 50.588989%, 46.669006%)" d="M 17.851562 12.265625 C 12.527344 19.574219 7.65625 27.136719 4.890625 36.03125 C 3.65625 36.066406 2.414062 35.9375 1.289062 35.074219 C 0.746094 34.65625 0.503906 34.210938 0.667969 33.582031 C 0.972656 32.398438 1.179688 31.152344 1.679688 30.054688 C 3.0625 27.058594 4.449219 24.046875 6.066406 21.183594 C 7.980469 17.800781 10.074219 14.523438 12.214844 11.285156 C 13.085938 9.964844 14.25 8.839844 15.335938 7.671875 C 16.386719 6.542969 17.652344 6.257812 19.082031 6.925781 C 19.46875 7.105469 19.851562 7.273438 20.242188 7.441406 C 22.171875 8.28125 23.222656 9.730469 23.355469 11.871094 C 23.503906 14.324219 23.683594 16.773438 23.886719 19.21875 C 24.085938 21.566406 24.523438 23.855469 25.828125 26.132812 C 26.511719 25.605469 27.207031 25.210938 27.710938 24.640625 C 28.984375 23.21875 30.242188 21.765625 31.371094 20.226562 C 33.101562 17.871094 34.695312 15.410156 36.398438 13.03125 C 37.140625 11.992188 37.949219 10.996094 38.832031 10.082031 C 40.542969 8.308594 41.667969 8.175781 43.976562 9.089844 C 46.375 10.042969 48.277344 11.554688 49.644531 13.765625 C 49.976562 14.304688 50.363281 14.8125 50.839844 15.5 C 54.859375 12.792969 57.902344 9.019531 62.175781 6.269531 C 60.574219 6.023438 59.320312 5.898438 58.09375 5.625 C 56.242188 5.21875 55.371094 3.257812 56.183594 1.335938 C 60.472656 1.523438 64.796875 1.714844 69.117188 1.910156 C 70.171875 1.953125 71.230469 2.074219 72.28125 2.039062 C 73.035156 2.015625 73.554688 2.269531 73.746094 2.964844 C 74.054688 4.085938 74.394531 5.230469 74.472656 6.378906 C 74.519531 6.988281 74.164062 7.71875 73.789062 8.253906 C 72.625 9.910156 71.386719 11.507812 70.144531 13.101562 C 68.597656 15.09375 67.328125 17.230469 66.484375 19.621094 C 66.285156 20.1875 65.929688 20.699219 65.539062 21.445312 C 65.195312 20.898438 64.835938 20.59375 64.855469 20.308594 C 64.949219 18.898438 63.375 17.941406 63.933594 16.386719 C 64.492188 14.835938 64.882812 13.226562 65.34375 11.640625 C 65.410156 11.398438 65.488281 11.164062 65.453125 10.824219 C 63.714844 11.84375 62.160156 13.0625 60.648438 14.351562 C 59.117188 15.664062 57.601562 16.996094 56.035156 18.261719 C 55.136719 18.988281 54.058594 19.367188 52.910156 19.042969 C 51.847656 18.742188 50.804688 18.347656 49.808594 17.875 C 48.144531 17.078125 46.875 15.796875 45.816406 14.292969 C 45.425781 13.734375 45.019531 13.175781 44.496094 12.4375 C 44.007812 12.925781 43.519531 13.3125 43.160156 13.792969 C 41.761719 15.667969 40.410156 17.578125 39.027344 19.464844 C 37.457031 21.613281 35.898438 23.769531 34.265625 25.867188 C 33.585938 26.738281 32.738281 27.492188 31.925781 28.25 C 30.3125 29.753906 28.488281 29.867188 26.464844 29.164062 C 21.308594 27.359375 19.03125 23.480469 18.621094 18.230469 C 18.496094 16.632812 18.480469 15.027344 18.398438 13.425781 C 18.382812 13.070312 18.308594 12.714844 18.261719 12.359375 C 18.125 12.328125 17.988281 12.296875 17.851562 12.265625 Z M 17.851562 12.265625 " fill-opacity="1" fill-rule="nonzero"/></g></svg>