<svg xmlns="http://www.w3.org/2000/svg" xmlns:xlink="http://www.w3.org/1999/xlink" width="100" zoomAndPan="magnify" viewBox="0 0 75 37.5" height="50" preserveAspectRatio="xMidYMid meet" version="1.0"><defs><clipPath id="id1"><path d="M 1 0 L 74 0 L 74 37 L 1 37 Z M 1 0 " clip-rule="nonzero"/></clipPath><clipPath id="id2"><path d="M 75.839844 31.847656 L 2.8125 37.855469 L 0.0859375 4.660156 L 73.109375 -1.34375 Z M 75.839844 31.847656 " clip-rule="nonzero"/></clipPath><clipPath id="id3"><path d="M 75.839844 31.847656 L 2.8125 37.855469 L 0.0859375 4.660156 L 73.109375 -1.34375 Z M 75.839844 31.847656 " clip-rule="nonzero"/></clipPath></defs><g clip-path="url(#id1)"><g clip-path="url(#id2)"><g clip-path="url(#id3)"><path fill="rgb(94.898987%, 32.159424%, 43.919373%)" d="M 18.039062 8.421875 C 18.089844 9.902344 18.1875 11.441406 17.496094 12.789062 C 16.847656 14.066406 15.902344 15.195312 14.996094 16.511719 C 17.050781 16.328125 18.921875 15.789062 20.78125 15.210938 C 25.0625 13.878906 28.816406 11.660156 32.15625 8.679688 C 33.929688 7.097656 35.867188 5.703125 37.78125 4.292969 C 41.210938 1.757812 45.175781 0.777344 49.355469 0.644531 C 53.988281 0.492188 58.566406 0.996094 63.0625 2.203125 C 66.460938 3.109375 69.683594 4.433594 72.738281 6.164062 C 74.113281 6.941406 74.175781 9.101562 72.769531 9.867188 C 72.28125 10.132812 71.488281 9.976562 70.871094 9.84375 C 69.339844 9.515625 67.804688 9.15625 66.3125 8.6875 C 62.203125 7.394531 57.960938 6.933594 53.707031 7.050781 C 49.464844 7.167969 45.175781 7.328125 41.144531 8.972656 C 38.046875 10.234375 35.421875 12.207031 32.863281 14.289062 C 32 14.992188 31.179688 15.75 30.34375 16.484375 C 26.496094 19.875 22.0625 22.097656 17.03125 23.140625 C 16.792969 23.191406 16.5625 23.269531 16.125 23.390625 C 16.457031 23.722656 16.65625 23.976562 16.90625 24.160156 C 18.277344 25.203125 19.671875 26.210938 21.027344 27.273438 C 21.703125 27.804688 22.308594 28.421875 22.945312 29 C 24.667969 30.5625 24.84375 32.40625 23.964844 34.464844 C 23.761719 34.9375 23.695312 35.476562 23.53125 36.144531 C 23.175781 35.933594 22.941406 35.851562 22.78125 35.695312 C 18.25 31.132812 12.859375 27.890625 6.949219 25.441406 C 5.871094 25 4.773438 24.605469 3.679688 24.191406 C 1.722656 23.445312 1.554688 23.195312 1.578125 21.09375 C 1.578125 20.992188 1.609375 20.894531 1.617188 20.789062 C 1.972656 16.179688 2.464844 16.570312 5.6875 15.40625 C 7.164062 14.867188 8.671875 14.410156 10.109375 13.785156 C 12.601562 12.707031 14.765625 11.136719 16.589844 9.113281 C 16.90625 8.761719 17.292969 8.484375 17.648438 8.171875 C 17.777344 8.265625 17.90625 8.34375 18.039062 8.421875 Z M 18.039062 8.421875 " fill-opacity="1" fill-rule="nonzero"/></g></g></g></svg>