<svg xmlns="http://www.w3.org/2000/svg" xmlns:xlink="http://www.w3.org/1999/xlink" width="100" zoomAndPan="magnify" viewBox="0 0 75 37.5" height="50" preserveAspectRatio="xMidYMid meet" version="1.0"><defs><clipPath id="id1"><path d="M 0.492188 0 L 74.503906 0 L 74.503906 37.007812 L 0.492188 37.007812 Z M 0.492188 0 " clip-rule="nonzero"/></clipPath><clipPath id="id2"><path d="M 0.492188 1.613281 L 74.503906 1.613281 L 74.503906 35.660156 L 0.492188 35.660156 Z M 0.492188 1.613281 " clip-rule="nonzero"/></clipPath></defs><g clip-path="url(#id1)"><path fill="rgb(100%, 100%, 100%)" d="M 0.492188 0 L 74.507812 0 L 74.507812 44.40625 L 0.492188 44.40625 Z M 0.492188 0 " fill-opacity="1" fill-rule="nonzero"/><path fill="rgb(100%, 100%, 100%)" d="M 0.492188 0 L 74.507812 0 L 74.507812 37.007812 L 0.492188 37.007812 Z M 0.492188 0 " fill-opacity="1" fill-rule="nonzero"/><path fill="rgb(100%, 100%, 100%)" d="M 0.492188 0 L 74.507812 0 L 74.507812 37.007812 L 0.492188 37.007812 Z M 0.492188 0 " fill-opacity="1" fill-rule="nonzero"/><path fill="rgb(100%, 100%, 100%)" d="M 0.492188 0 L 74.507812 0 L 74.507812 37.007812 L 0.492188 37.007812 Z M 0.492188 0 " fill-opacity="1" fill-rule="nonzero"/></g><g clip-path="url(#id2)"><path fill="rgb(94.898987%, 32.159424%, 43.919373%)" d="M 56.738281 30.324219 C 56.808594 28.8125 56.839844 27.238281 57.644531 25.917969 C 58.402344 24.671875 59.449219 23.605469 60.472656 22.335938 C 58.386719 22.351562 56.460938 22.746094 54.539062 23.179688 C 50.121094 24.175781 46.160156 26.121094 42.550781 28.878906 C 40.636719 30.339844 38.566406 31.597656 36.527344 32.878906 C 32.863281 35.175781 28.792969 35.839844 24.574219 35.625 C 19.898438 35.390625 15.332031 34.492188 10.910156 32.890625 C 7.5625 31.679688 4.429688 30.058594 1.496094 28.039062 C 0.179688 27.132812 0.296875 24.929688 1.773438 24.269531 C 2.285156 24.039062 3.070312 24.265625 3.679688 24.449219 C 5.195312 24.914062 6.710938 25.410156 8.175781 26.011719 C 12.203125 27.671875 16.4375 28.496094 20.726562 28.734375 C 25.007812 28.972656 29.332031 29.164062 33.53125 27.828125 C 36.75 26.800781 39.558594 25.011719 42.304688 23.105469 C 43.230469 22.460938 44.121094 21.757812 45.023438 21.078125 C 49.175781 17.945312 53.820312 16.054688 58.972656 15.414062 C 59.214844 15.382812 59.453125 15.324219 59.902344 15.234375 C 59.597656 14.867188 59.414062 14.59375 59.179688 14.382812 C 57.886719 13.207031 56.566406 12.066406 55.289062 10.871094 C 54.652344 10.273438 54.09375 9.589844 53.503906 8.949219 C 51.898438 7.210938 51.875 5.320312 52.929688 3.296875 C 53.171875 2.828125 53.28125 2.289062 53.503906 1.621094 C 53.84375 1.863281 54.074219 1.96875 54.222656 2.140625 C 58.40625 7.167969 63.5625 10.925781 69.308594 13.914062 C 70.359375 14.457031 71.429688 14.945312 72.492188 15.460938 C 74.402344 16.386719 74.550781 16.652344 74.355469 18.792969 C 74.347656 18.898438 74.308594 18.996094 74.292969 19.097656 C 73.550781 23.765625 73.085938 23.328125 69.75 24.246094 C 68.21875 24.667969 66.664062 25.007812 65.164062 25.523438 C 62.5625 26.414062 60.253906 27.832031 58.253906 29.742188 C 57.90625 30.070312 57.496094 30.324219 57.109375 30.609375 C 56.988281 30.507812 56.863281 30.417969 56.738281 30.324219 Z M 56.738281 30.324219 " fill-opacity="1" fill-rule="nonzero"/></g></svg>